<svg width="280" height="280" viewBox="0 0 280 280" fill="none" xmlns="http://www.w3.org/2000/svg">
<rect width="280" height="280" rx="140" fill="white"/>
<path d="M170.903 204.813V167.226C162.925 171.091 156.255 173.023 150.894 173.023C146.282 173.023 138.241 169.096 126.771 161.242C121.535 167.101 114.741 171.34 106.388 173.958C108.632 178.197 113.681 183.744 121.535 190.601C129.514 197.458 137.243 203.442 144.723 208.553L139.487 215.472C122.159 204.626 110.004 196.273 103.022 190.414C88.0623 177.947 78.0889 164.733 73.1023 150.77C75.9696 142.667 78.8369 136.932 81.7043 133.566C82.8263 132.195 84.8833 132.257 87.8753 133.753C90.8673 135.249 93.5476 137.119 95.9163 139.363C96.5396 140.111 97.0383 141.233 97.4123 142.729C97.9109 144.1 98.3473 146.033 98.7213 148.526C99.2199 150.895 99.7186 152.952 100.217 154.697C105.204 153.076 109.069 150.458 111.811 146.843C114.679 143.228 116.299 139.176 116.673 134.688C117.172 130.075 117.047 125.525 116.299 121.037C115.676 116.424 114.554 111.812 112.933 107.199H68.0533V89.247H204.189V107.199H194.091V215.285L170.903 204.813ZM125.649 107.199C131.01 115.427 134.189 123.717 135.186 132.07C136.308 140.298 134.999 147.84 131.259 154.697C134.999 156.318 139.051 157.253 143.414 157.502C147.902 157.627 152.764 156.442 158 153.949C163.236 151.331 167.537 147.217 170.903 141.607V107.199H125.649Z" fill="black"/>
</svg>
